<?xml version="1.0" encoding="utf-8"?>
<!-- Generator: Adobe Illustrator 19.0.0, SVG Export Plug-In . SVG Version: 6.00 Build 0)  -->
<svg version="1.1" id="图层_1" xmlns="http://www.w3.org/2000/svg" xmlns:xlink="http://www.w3.org/1999/xlink" x="0px" y="0px"
	 viewBox="0 0 80 320" style="enable-background:new 0 0 80 320;" xml:space="preserve" width="80" height="320">
<style type="text/css">
	.st0{fill:#FFFFFF;}
	.st1{clip-path:url(#XMLID_45_);}
	.st2{opacity:0.5;}
</style>
<g id="XMLID_74_">
	<g id="XMLID_16_">
		<path id="XMLID_19_" class="st0" d="M69.2,2.5L69.2,2.5c-4,1.5-7.9,3.1-11.8,4.6c-2,0.8-3.9,1.5-5.9,2.2c-1,0.3-2,0.7-3,1
			c-1,0.3-2,0.6-3,0.9c-1,0.3-2,0.5-3,0.7c-1,0.2-2,0.4-3,0.6c-1,0.1-2,0.3-3,0.4c-1,0.1-2,0.2-3.1,0.2c-0.6,0-1,0-1.4,0
			c-0.5,0-0.9-0.1-1.4-0.2c-0.9-0.2-1.8-0.5-2.6-0.9c-0.4-0.2-0.8-0.5-1.2-0.7c-0.4-0.3-0.7-0.6-1.1-0.8c-0.3-0.3-0.7-0.6-1-1
			l-0.9-1.1l-0.1-0.1c-0.2-0.2-0.5-0.4-0.8-0.5c-0.7-0.1-1.5,0.3-1.6,1.1c-0.3,1.6-0.6,3.1-0.9,4.7L20.1,16
			c-0.1,0.8-0.2,1.6-0.3,2.4c-0.1,1.6-0.3,3.2-0.3,4.8c0,0.2,0,0.4,0,0.5c0.2,0.1,0.4,0.1,0.6,0.2c0.6,0.2,1.3,0.5,1.8,0.8
			c0-0.5,0-1,0.1-1.4c0-1.5,0.3-3.1,0.4-4.6c0.1-0.8,0.2-1.5,0.3-2.3l0.4-2.3c0.1-0.6,0.2-1.2,0.4-1.8c0.1,0.1,0.3,0.3,0.4,0.4
			c0.5,0.4,0.9,0.8,1.4,1.1c0.5,0.3,1,0.7,1.5,0.9c1.1,0.5,2.2,1,3.3,1.2c0.6,0.1,1.2,0.3,1.8,0.2c0.6,0,1.2,0.1,1.7,0
			c1.1,0,2.1,0,3.2-0.1c1.1-0.1,2.2-0.2,3.3-0.3c1.1-0.1,2.1-0.3,3.2-0.5c1.1-0.2,2.1-0.4,3.2-0.7c1.1-0.2,2.1-0.5,3.1-0.8
			c1-0.3,2.1-0.6,3.1-0.9c2-0.6,4.1-1.3,6.1-2c0.8-0.3,1.6-0.6,2.4-0.9C61.1,9.9,61,9.9,61,10c-0.6,0.6-1.2,1.2-1.8,1.9l-1.8,2
			c-1.1,1.4-2.2,2.7-3.2,4.2c-1,1.4-1.9,2.9-2.9,4.4c-0.9,1.5-1.7,3-2.5,4.6l0,0.1c0.7,0,1.4,0.2,2.1,0.4c0.7,0.3,1.4,0.6,2,1.1
			c0.7-1.3,1.5-2.6,2.2-3.9c0.9-1.4,1.8-2.7,2.7-4.1c0.9-1.3,2-2.6,3-3.9l1.6-1.8c0.5-0.6,1.1-1.2,1.7-1.9c0.3-0.3,0.6-0.7,0.8-0.9
			l0.9-0.9l1.8-1.7c1.2-1.2,2.5-2.4,3.7-3.7c0.6-0.6,0.8-1.4,0.5-2.2C71.5,2.6,70.3,2.1,69.2,2.5z"/>
		<path id="XMLID_18_" class="st0" d="M42,46.2l-0.1,0.5c0.1,1.1-0.1,2.2-0.5,3.3c-0.1,0.7-0.2,1.3-0.2,2c-0.2,1.7-0.2,3.4-0.3,5.2
			l0,2.5l0.1,2.6l0.2,2.6l0.3,2.5l0.4,2.5c0,0,0.3,1.9,0.5,2.5c0.3,1.1,1.5,4.2,1.5,4.2L41.5,74c-1.1-1.1-2.1-2.3-3.2-3.4
			c-0.5-0.6-1-1.2-1.5-1.8l-1.4-1.9L34.7,66c-0.2-0.3-0.4-0.6-0.6-1l-1.3-2c-0.4-0.7-0.9-1.3-1.2-2l-1.1-2l-1.1-2l-1-2.1l-1-2.1
			c-0.1-0.2-0.2-0.5-0.3-0.7c-0.3-0.4-0.5-0.8-0.7-1.2c-0.4-0.9-1.1-1.9-1.2-2.9L23,46.4l0.1,0.2c0.4,1.5,1.1,3,1.7,4.4
			c0.3,0.7,0.6,1.5,0.9,2.2l1,2.1l1.1,2.1l1.2,2.1l1.2,2c0.4,0.7,0.9,1.3,1.3,2l1.4,1.9c0.2,0.3,0.4,0.7,0.7,1l0.8,0.9l1.5,1.8
			c0.5,0.6,1,1.2,1.6,1.8c1.1,1.1,2.2,2.3,3.3,3.4l3.6,3.1c0,0,0.1,0.1,0.2,0.1c0.1,0,0.2-0.1,0.2-0.2l0,0l-0.3-5.1
			c-0.1-1.7-0.2-3.4-0.3-5l-0.1-2.5l0-2.5l0.1-2.4l0.2-2.5c0.2-1.6,0.3-3.3,0.6-4.9c0.1-0.8,0.3-1.6,0.4-2.4
			c0.2-0.8,0.3-1.6,0.5-2.4l0.6-2.4c0.2-0.8,0.5-1.6,0.7-2.4c0-0.1,0-0.1,0.1-0.2c-0.1,0-0.2,0-0.4-0.1L42,46.2z"/>
		<path id="XMLID_17_" class="st0" d="M64.9,37.2C64.5,37.1,64,37,63.6,37c-1.2,0-2.3,0.5-3,1.4l-7.4-3c0.3-2.2-1-4.4-3.2-5.1
			C49.5,30.1,49,30,48.5,30c-2,0-3.9,1.3-4.5,3.2c-0.4,1.1-0.4,2.3,0.1,3.3l-7,5.6c-0.4-0.2-0.7-0.4-1.1-0.6
			c-0.6-0.2-1.3-0.3-1.9-0.3c-1.2,0-2.4,0.4-3.4,1.1l-6.1-4.5c0,0,0-0.1,0-0.1c0.8-2.2,0.6-4.6-0.4-6.7c-1-2.1-2.8-3.7-5-4.5
			c-0.9-0.3-1.9-0.5-2.9-0.5c-3.7,0-7,2.3-8.2,5.8c-0.8,2.2-0.6,4.6,0.4,6.7c1,2.1,2.8,3.7,5,4.5c0.9,0.3,1.9,0.5,2.9,0.5l0,0
			c1.9,0,3.7-0.6,5.2-1.7l6.8,4.5c-0.1,1.1,0,2.2,0.5,3.1c0.7,1.4,1.8,2.4,3.3,2.9c0.6,0.2,1.3,0.3,1.9,0.3c2.4,0,4.6-1.5,5.4-3.8
			c0.4-1.3,0.4-2.6,0-3.8l6.9-6.1c0.2,0.1,0.4,0.2,0.7,0.3c0.5,0.2,1.1,0.3,1.6,0.3c1.6,0,3-0.8,3.9-2l7.4,2.7
			c-0.1,0.7,0,1.5,0.4,2.1c0.4,0.9,1.2,1.6,2.2,2c0.4,0.1,0.8,0.2,1.3,0.2c1.6,0,3.1-1,3.7-2.6C68,40.1,66.9,37.9,64.9,37.2z"/>
	</g>
	<g id="XMLID_54_">
		<g id="XMLID_103_">
			<circle id="XMLID_107_" class="st0" cx="63.2" cy="297.1" r="7.7"/>
			<circle id="XMLID_106_" class="st0" cx="11.2" cy="299.3" r="5.4"/>
			<circle id="XMLID_105_" class="st0" cx="38.5" cy="263.8" r="9.8"/>
			<path id="XMLID_104_" class="st0" d="M66.8,263.1c-4,0-7.4,2.6-8.6,6.3c-3.5,7.4-13.4,14.8-22.1,14.8
				c-10.7-0.1-12.6-3.2-17.7-11.6c0,0,0,0,0,0c-1.3-2.6-4.1-4.4-7.2-4.4c-4.5,0-8.1,3.6-8.1,8.1c0,4.5,3.6,8,8.1,8
				c0.6,0,3.3-0.1,4.7,0.4c14,4.9,12.8,11.4,14.2,18.1c0.5,2.5,3.4,4.3,6.4,4.3c3,0,5.5-1.4,6.5-4c0.8-2.2,6.9-14.8,10.1-17.7
				c3.4-3.1,10.1-4.2,10.1-4.2c1.4,0,2.5,0,3.5,0c0,0,0.1,0,0.1,0c5,0,9-4,9-9C75.8,267.1,71.8,263.1,66.8,263.1z"/>
		</g>
	</g>
	<path id="XMLID_48_" class="st0" d="M68.2,165H11.4c-3.9,0-7.1,3.2-7.1,7.1v56.8c0,3.9,3.2,7.1,7.1,7.1h56.8c3.9,0,7.1-3.2,7.1-7.1
		v-56.8C75.3,168.2,72.1,165,68.2,165z M30.6,179c0,0-2.6-0.7-12.6,3.9c0,0,10.7-7.9,14.4-7.4l16.6,26.9c0,0-22.3,8.6-33.3,20.9
		c0,0,5.8-13.4,27.2-22L30.6,179z M54.1,205.1l-16.3-25.2h-2l-1.4-2.2c3.9-1.4,4.5-1.2,4.5-1.2l21.4,30c-23.1,3.5-44.6,18-44.6,18
		C35.3,206.5,54.1,205.1,54.1,205.1z M15.7,225.6c0,0,25.1-9.7,43.2-9.4l2.7,5.2C61.6,221.3,36.7,220.7,15.7,225.6z M16.5,224.4
		c0,0,18.4-10.9,39.7-12.1l-1.8-3.2c0,0,2-0.9,4-1.2l5.4,7.3C63.9,215.3,46.2,213.5,16.5,224.4z"/>
	<g id="XMLID_42_">
		<g id="XMLID_56_">
			<defs>
				<path id="XMLID_5_" d="M11.8,120.9c0,0,20.6-37.4,29.6-37.4c9,0,29.6,37.4,29.6,37.4s-2.5,14.4-6.3,18.5c-2.7,0.3-8,2.1-11,5.1
					c-1-1.5-3.4-4.5,3.6-8.8c-16.2-4.9-25.1,6.9-27.3,8.4c-1.6-0.3-2.3-1.2-3.1-3.5c-2.9,0.3-3.6,0.5-6.8,2.2
					C20,142.6,11.8,120.9,11.8,120.9z"/>
			</defs>
			<clipPath id="XMLID_45_">
				<use xlink:href="#XMLID_5_"  style="overflow:visible;"/>
			</clipPath>
			<g id="XMLID_58_" class="st1">
				<path id="XMLID_39_" class="st0" d="M28.9,105.4c0-0.9,0.4-1.8,1-2.4c-1.4-2.4-2.6-4.4-3.3-6c-3.7,5.2-7.3,10.9-10.1,15.4
					c3.4-1.8,7.7-3.9,12.7-5.9C29,106.3,28.9,105.9,28.9,105.4z"/>
				<path id="XMLID_38_" class="st0" d="M32.3,102c0.5,0,1.1,0.1,1.5,0.4c6.1-7,11.9-11,16.1-13.2c-3.2-3.6-6.2-5.9-8.5-5.9
					c-3.7,0-9.2,6.1-14.5,13.4c0.9,1.5,2.2,3.5,3.7,5.8C31.1,102.2,31.7,102,32.3,102z"/>
				<path id="XMLID_37_" class="st0" d="M20,116.9c0.5-1.7,2.1-2.9,3.9-2.9c0.5,0,0.9,0.1,1.3,0.2c1.5-2.4,3-4.6,4.5-6.7
					c0,0,0,0,0,0c-5.7,2.3-10.7,4.8-14.2,6.7c-0.1,0.2-0.3,0.5-0.4,0.7C16.1,115.4,17.8,116.1,20,116.9z"/>
				<path id="XMLID_26_" class="st0" d="M50.3,125.3c-0.1,0.3-0.3,0.5-0.4,0.7c5.1,4.8,10.6,8.9,16.4,11.4c1.8-3.5,3.3-8.9,4.1-12.5
					C63.9,126,57,126,50.3,125.3z"/>
				<path id="XMLID_25_" class="st0" d="M34.9,103.2c0.3,0.3,0.5,0.7,0.6,1c7.1-2.4,14.9-4.3,22.5-4.6c-2.5-3.7-5.2-7.2-7.7-10
					C46.3,92,40.7,96.2,34.9,103.2z"/>
				<path id="XMLID_24_" class="st0" d="M50.8,123.2c0,0.4,0,0.7-0.1,1.1c6.6,0.7,13.5,0.7,20-0.5c0.3-1.7,0.5-2.8,0.5-2.8
					s-4.1-7.5-9.5-15.8c-1.8,2.9-5.5,8.7-11.9,15.1C50.4,121.1,50.8,122.1,50.8,123.2z"/>
				<path id="XMLID_23_" class="st0" d="M35.7,105.4c0,1.1-0.5,2-1.3,2.6c2.5,3.4,5.4,7.2,8.7,10.9c0.8-0.5,1.7-0.8,2.7-0.8
					c1.1,0,2.2,0.4,3,1c6.3-6,10.8-11.5,12.8-14.1c-0.9-1.4-1.9-2.9-2.9-4.4c-7.8,0.2-15.8,2.2-23,4.6
					C35.7,105.4,35.7,105.4,35.7,105.4z"/>
				<path id="XMLID_22_" class="st0" d="M40.8,123.9c-5-1-9.6-2.2-13.6-3.4c-0.7,1.1-2,1.8-3.4,1.8c-0.5,0-0.9-0.1-1.3-0.2
					c-2,3.9-3.9,8.2-5.8,12.9c0.5,1.2,0.9,2.4,1.3,3.4c8.7-2.5,16.6-7.4,23.4-12.7C41.1,125.1,40.9,124.5,40.8,123.9z"/>
				<path id="XMLID_21_" class="st0" d="M45.8,128.2c-1.3,0-2.5-0.5-3.4-1.4c-6.2,4.9-14.1,9.5-23.8,12.9c0.7,1.9,1.2,3.2,1.2,3.2
					c3.2-1.7,3.9-2,6.9-2.2c0.9,2.3,1.5,3.2,3.2,3.5c2.3-1.5,11.2-13.4,27.5-8.5c-7.1,4.3-4.6,7.3-3.6,8.9c3-3,8.3-4.8,11.1-5.1
					c0.2-0.2,0.5-0.5,0.7-0.9c-6-2.5-11.6-6.7-16.7-11.6C48,127.8,46.9,128.2,45.8,128.2z"/>
				<path id="XMLID_20_" class="st0" d="M32.3,108.8c-0.5,0-1-0.1-1.5-0.4c-1.4,2-2.9,4.2-4.3,6.5c0.9,0.8,1.5,1.9,1.5,3.1
					c0,0.5-0.1,0.9-0.2,1.4c3.9,1.2,8.3,2.4,13.1,3.3c0.1-1.1,0.5-2.1,1.2-2.9c-3.3-3.8-6.1-7.7-8.6-11.3
					C33.1,108.8,32.7,108.8,32.3,108.8z"/>
				<path id="XMLID_15_" class="st0" d="M19.8,118.1c0-0.1,0-0.1,0-0.2c-2.3-0.8-4.1-1.6-5.3-2.1c-1.8,3.1-2.9,5.1-2.9,5.1
					s2.3,6,4.4,11.8c1.7-4.2,3.5-8,5.3-11.5C20.3,120.5,19.8,119.4,19.8,118.1z"/>
				<path id="XMLID_14_" class="st0" d="M25.2,93.9c0,0.3,0.5,1.5,1.4,3.2c0.1-0.1,0.2-0.3,0.3-0.4C25.8,94.9,25.2,93.9,25.2,93.9z"
					/>
				<path id="XMLID_13_" class="st0" d="M56.6,86.6c-0.3,0-2.8,0.6-6.7,2.6c0.1,0.1,0.2,0.3,0.4,0.4C54.1,87.3,56.6,86.6,56.6,86.6z
					"/>
				<path id="XMLID_12_" class="st0" d="M13.9,138.1l1.5,0.5c0.5-1.2,0.9-2.5,1.4-3.6c-0.3-0.7-0.5-1.5-0.8-2.2
					C15.2,134.5,14.6,136.2,13.9,138.1z"/>
				<path id="XMLID_11_" class="st0" d="M64.1,100.8l0.1-1.1c-2-0.2-4.1-0.2-6.2-0.1c0.2,0.3,0.5,0.7,0.7,1
					C60.5,100.6,62.3,100.6,64.1,100.8z"/>
				<path id="XMLID_10_" class="st0" d="M17.5,138.5l0.6,1.5c0.2-0.1,0.3-0.1,0.5-0.2c-0.2-0.4-0.3-0.9-0.5-1.4
					C17.8,138.4,17.7,138.5,17.5,138.5z"/>
				<path id="XMLID_9_" class="st0" d="M73.3,124.3l-0.2-1c-0.8,0.2-1.6,0.3-2.4,0.5c-0.1,0.3-0.2,0.7-0.2,1.1
					C71.4,124.7,72.3,124.5,73.3,124.3z"/>
				<path id="XMLID_8_" class="st0" d="M65.5,138.8c0.5,0.2,0.9,0.4,1.4,0.6l0.8-1.4c-0.4-0.2-0.9-0.3-1.3-0.5
					C66.1,137.9,65.8,138.4,65.5,138.8z"/>
				<path id="XMLID_7_" class="st0" d="M62.7,103.5c0,0-0.4,0.6-1.1,1.5c0,0.1,0.1,0.1,0.1,0.2C62.2,104.4,62.5,103.8,62.7,103.5z"
					/>
				<path id="XMLID_6_" class="st0" d="M14.5,114.7c0.3-0.2,0.6-0.3,0.9-0.5c0.3-0.6,0.7-1.1,1-1.7c-1.2,0.6-2.2,1.2-3.2,1.7
					c0,0,0,0,0,0l0,0c-2.7,1.5-4.2,2.5-4.3,2.5l0.6,0.9c0.1,0,1.4-0.9,3.8-2.2c0.3,0.1,0.6,0.3,1.1,0.5c0.2-0.3,0.4-0.6,0.5-0.9
					C14.8,114.9,14.7,114.8,14.5,114.7z"/>
			</g>
		</g>
		<g id="XMLID_51_" class="st2">
			<path id="XMLID_4_" class="st0" d="M73.2,153.7c-6.5,1.5-13.3,1.9-19.9,1.2c-3.4-0.5-6.6-1.4-9.7-3c-2.6-1.7-6.8-1.5-9.4-0.6
				c-4,1.1-4.9,2.9-9.6,3.2c-3.7,0.2-7.3-0.7-10.7-1.6c8.1-0.6,11.7-2.9,18.1-8.3c7.2-6.1,11.8-9.2,22.4-8
				c-4.6,2.7-4.7,7.2-0.9,10.6C58.2,151.9,65.7,153.7,73.2,153.7z"/>
			<path id="XMLID_27_" class="st0" d="M78.2,149.9c-1.3,0.3-2.6,0.6-3.9,0.8c-2.4,0.2-4.7,0.2-7.1-0.1c-2.4-0.3-4.3-1.4-6.3-2.5
				c-0.6,0.5-1.2,1-1.6,1.6c-2.1-0.8-3.7-2.3-4.5-3.4c2.4-2.5,5.9-4,9.8-4.8C65.3,148,71.6,150.3,78.2,149.9z"/>
			<path id="XMLID_40_" class="st0" d="M28.8,145.5c-0.6,0.5-1.6,1.3-2.3,1.7c-0.9-0.1-1.8-0.7-2.3-1.4c-0.4,0.1-1,0.2-1.4,0.4
				c-1.4,0.5-2.5,1.2-3.7,1.9c-2,1-3.8,2.5-5.9,3.2c-3.9,1.2-8,0.9-11.7,0.4c6.1-0.4,10-0.8,14.6-4.3c2.9-2.2,5.8-4.8,9.8-5.3
				C25.9,143.5,27.5,145.1,28.8,145.5z"/>
		</g>
	</g>
</g>
</svg>
