<?xml version="1.0" encoding="utf-8"?>
<!-- Generator: Adobe Illustrator 19.0.0, SVG Export Plug-In . SVG Version: 6.00 Build 0)  -->
<svg version="1.1" id="图层_1" xmlns="http://www.w3.org/2000/svg" xmlns:xlink="http://www.w3.org/1999/xlink" x="0px" y="0px"
	 viewBox="0 0 40 160" style="enable-background:new 0 0 40 160;" xml:space="preserve" width="40" height="160">
<style type="text/css">
	.st0{fill:#FFFFFF;}
	.st1{clip-path:url(#XMLID_2_);}
	.st2{opacity:0.5;}
</style>
<g id="XMLID_74_">
	<g id="XMLID_16_">
		<path id="XMLID_19_" class="st0" d="M35.1,1.1L35.1,1.1c-2,0.8-4,1.6-6,2.3c-1,0.4-2,0.8-3,1.1c-0.5,0.2-1,0.3-1.5,0.5
			c-0.5,0.2-1,0.3-1.5,0.4c-0.5,0.1-1,0.3-1.5,0.4c-0.5,0.1-1,0.2-1.5,0.3c-0.5,0.1-1,0.2-1.5,0.2c-0.5,0.1-1,0.1-1.6,0.1
			c-0.3,0-0.5,0-0.7,0c-0.2,0-0.5-0.1-0.7-0.1c-0.5-0.1-0.9-0.2-1.3-0.4c-0.2-0.1-0.4-0.2-0.6-0.3c-0.2-0.1-0.4-0.3-0.6-0.4
			c-0.2-0.2-0.3-0.3-0.5-0.5l-0.5-0.6L12,4c-0.1-0.1-0.2-0.2-0.4-0.2c-0.4-0.1-0.7,0.2-0.8,0.6c-0.2,0.8-0.3,1.6-0.5,2.4l-0.2,1.2
			c-0.1,0.4-0.1,0.8-0.1,1.2c-0.1,0.8-0.2,1.6-0.1,2.4c0,0.1,0,0.2,0,0.3c0.1,0,0.2,0.1,0.3,0.1c0.3,0.1,0.6,0.3,0.9,0.4
			c0-0.2,0-0.5,0-0.7c0-0.8,0.1-1.6,0.2-2.3c0-0.4,0.1-0.8,0.2-1.2l0.2-1.2c0.1-0.3,0.1-0.6,0.2-0.9C12,6.1,12,6.2,12.1,6.2
			c0.2,0.2,0.5,0.4,0.7,0.5c0.3,0.2,0.5,0.3,0.8,0.5c0.5,0.3,1.1,0.5,1.7,0.6c0.3,0,0.6,0.1,0.9,0.1c0.3,0,0.6,0,0.9,0
			c0.5,0,1.1,0,1.6-0.1c0.6,0,1.1-0.1,1.7-0.2c0.5-0.1,1.1-0.2,1.6-0.3c0.5-0.1,1.1-0.2,1.6-0.4c0.5-0.1,1.1-0.3,1.6-0.4
			c0.5-0.1,1-0.3,1.6-0.5c1-0.3,2.1-0.7,3.1-1c0.4-0.1,0.8-0.3,1.2-0.4c0,0-0.1,0.1-0.1,0.1c-0.3,0.3-0.6,0.6-0.9,0.9l-0.9,1
			c-0.6,0.7-1.1,1.4-1.6,2.1c-0.5,0.7-1,1.5-1.4,2.2c-0.4,0.8-0.9,1.5-1.3,2.3l0,0c0.4,0,0.7,0.1,1.1,0.2c0.4,0.1,0.7,0.3,1,0.6
			c0.4-0.7,0.7-1.3,1.1-1.9c0.5-0.7,0.9-1.4,1.4-2.1c0.5-0.7,1-1.3,1.5-2l0.8-0.9c0.3-0.3,0.6-0.6,0.9-0.9C32.7,6.3,32.9,6.1,33,6
			l0.4-0.4l0.9-0.9c0.6-0.6,1.3-1.2,1.9-1.9c0.3-0.3,0.4-0.7,0.2-1.1C36.2,1.1,35.6,0.9,35.1,1.1z"/>
		<path id="XMLID_18_" class="st0" d="M21.3,23.2l0,0.2c0,0.6,0,1.1-0.2,1.6c0,0.3-0.1,0.7-0.1,1c-0.1,0.9-0.1,1.7-0.1,2.6l0,1.3
			l0.1,1.3l0.1,1.3l0.2,1.3l0.2,1.3c0,0,0.2,1,0.2,1.3c0.1,0.5,0.8,2.1,0.8,2.1L21,37.3c-0.6-0.6-1.1-1.2-1.6-1.7
			c-0.3-0.3-0.5-0.6-0.7-0.9L18,33.7l-0.4-0.5c-0.1-0.2-0.2-0.3-0.3-0.5l-0.6-1c-0.2-0.3-0.4-0.6-0.6-1l-0.6-1l-0.6-1l-0.5-1.1
			l-0.5-1.1c-0.1-0.1-0.1-0.3-0.1-0.4c-0.1-0.2-0.2-0.4-0.4-0.6c-0.2-0.5-0.5-1-0.6-1.5l-1.1-0.8l0,0.1c0.2,0.8,0.6,1.5,0.9,2.3
			c0.2,0.4,0.3,0.7,0.5,1.1l0.5,1.1l0.5,1.1l0.6,1l0.6,1c0.2,0.4,0.4,0.7,0.7,1l0.7,1c0.1,0.2,0.2,0.3,0.3,0.5l0.4,0.5l0.8,0.9
			c0.3,0.3,0.5,0.6,0.8,0.9c0.6,0.6,1.1,1.2,1.7,1.7l1.8,1.6c0,0,0.1,0,0.1,0c0.1,0,0.1-0.1,0.1-0.1l0,0l-0.2-2.6
			c-0.1-0.9-0.1-1.7-0.2-2.6l0-1.3l0-1.3l0.1-1.2l0.1-1.3c0.1-0.8,0.2-1.7,0.3-2.5c0.1-0.4,0.1-0.8,0.2-1.2c0.1-0.4,0.2-0.8,0.3-1.2
			l0.3-1.2c0.1-0.4,0.2-0.8,0.3-1.2c0,0,0-0.1,0-0.1c-0.1,0-0.1,0-0.2,0L21.3,23.2z"/>
		<path id="XMLID_17_" class="st0" d="M32.9,18.6c-0.2-0.1-0.4-0.1-0.6-0.1c-0.6,0-1.1,0.3-1.5,0.7L27,17.7c0.1-1.1-0.5-2.2-1.6-2.6
			C25.1,15,24.8,15,24.6,15c-1,0-2,0.7-2.3,1.6c-0.2,0.6-0.2,1.1,0,1.7l-3.6,2.8c-0.2-0.1-0.4-0.2-0.6-0.3c-0.3-0.1-0.6-0.2-1-0.2
			c-0.6,0-1.2,0.2-1.7,0.6L12.4,19c0,0,0,0,0,0c0.4-1.1,0.3-2.3-0.2-3.4c-0.5-1.1-1.4-1.9-2.5-2.3c-0.5-0.2-1-0.3-1.5-0.3
			c-1.9,0-3.5,1.2-4.2,3c-0.4,1.1-0.3,2.3,0.2,3.4c0.5,1.1,1.4,1.9,2.5,2.3c0.5,0.2,1,0.3,1.5,0.3l0,0c1,0,1.9-0.3,2.6-0.9l3.4,2.3
			c-0.1,0.5,0,1.1,0.3,1.6c0.3,0.7,0.9,1.2,1.7,1.5c0.3,0.1,0.6,0.2,1,0.2c1.2,0,2.3-0.8,2.7-1.9c0.2-0.6,0.2-1.3,0-1.9l3.5-3.1
			c0.1,0.1,0.2,0.1,0.3,0.2c0.3,0.1,0.5,0.1,0.8,0.1c0.8,0,1.5-0.4,2-1l3.8,1.4c0,0.4,0,0.7,0.2,1.1c0.2,0.5,0.6,0.8,1.1,1
			c0.2,0.1,0.4,0.1,0.7,0.1c0.8,0,1.6-0.5,1.9-1.3C34.4,20.1,33.9,19,32.9,18.6z"/>
	</g>
	<g id="XMLID_54_">
		<g id="XMLID_76_">
			<circle id="XMLID_80_" class="st0" cx="32" cy="148.1" r="3.9"/>
			<circle id="XMLID_79_" class="st0" cx="5.7" cy="149.3" r="2.7"/>
			<circle id="XMLID_78_" class="st0" cx="19.5" cy="131.3" r="5"/>
			<path id="XMLID_77_" class="st0" d="M33.9,130.9c-2,0-3.8,1.3-4.3,3.2c-1.8,3.8-6.8,7.5-11.2,7.5c-5.4,0-6.4-1.6-9-5.9
				c0,0,0,0,0,0c-0.7-1.3-2.1-2.2-3.6-2.2c-2.3,0-4.1,1.8-4.1,4.1c0,2.3,1.8,4,4.1,4c0.3,0,1.6-0.1,2.4,0.2c7.1,2.5,6.5,5.7,7.2,9.1
				c0.3,1.3,1.7,2.2,3.2,2.2c1.5,0,2.8-0.7,3.3-2c0.4-1.1,3.5-7.5,5.1-9c1.7-1.6,5.1-2.1,5.1-2.1c0.7,0,1.3,0,1.8,0c0,0,0,0,0,0
				c2.5,0,4.5-2,4.5-4.5C38.4,133,36.4,130.9,33.9,130.9z"/>
		</g>
	</g>
	<path id="XMLID_48_" class="st0" d="M34.5,82.3H5.8c-2,0-3.6,1.6-3.6,3.6v28.7c0,2,1.6,3.6,3.6,3.6h28.7c2,0,3.6-1.6,3.6-3.6V85.9
		C38.1,83.9,36.5,82.3,34.5,82.3z M15.5,89.4c0,0-1.3-0.4-6.4,2c0,0,5.4-4,7.3-3.8l8.4,13.6c0,0-11.3,4.4-16.8,10.6
		c0,0,3-6.8,13.8-11.1L15.5,89.4z M27.4,102.6l-8.2-12.7h-1l-0.7-1.1c2-0.7,2.3-0.6,2.3-0.6l10.8,15.2C18.9,105.1,8,112.4,8,112.4
		C17.9,103.3,27.4,102.6,27.4,102.6z M8,113c0,0,12.7-4.9,21.9-4.8l1.3,2.6C31.2,110.8,18.6,110.5,8,113z M8.4,112.4
		c0,0,9.3-5.5,20.1-6.1l-0.9-1.6c0,0,1-0.4,2-0.6l2.7,3.7C32.4,107.7,23.4,106.8,8.4,112.4z"/>
	<g id="XMLID_42_">
		<g id="XMLID_56_">
			<defs>
				<path id="XMLID_5_" d="M6,60c0,0,10.4-18.9,15-18.9c4.6,0,15,18.9,15,18.9s-1.2,7.3-3.2,9.3c-1.4,0.1-4.1,1-5.6,2.6
					c-0.5-0.8-1.7-2.3,1.8-4.4C20.8,65,16.3,71,15.2,71.7c-0.8-0.1-1.1-0.6-1.6-1.8c-1.5,0.1-1.8,0.2-3.4,1.1C10.1,71,6,60,6,60z"/>
			</defs>
			<clipPath id="XMLID_2_">
				<use xlink:href="#XMLID_5_"  style="overflow:visible;"/>
			</clipPath>
			<g id="XMLID_58_" class="st1">
				<path id="XMLID_39_" class="st0" d="M14.7,52.2c0-0.5,0.2-0.9,0.5-1.2c-0.7-1.2-1.3-2.2-1.7-3c-1.9,2.6-3.7,5.5-5.1,7.8
					c1.7-0.9,3.9-2,6.4-3C14.7,52.6,14.7,52.4,14.7,52.2z"/>
				<path id="XMLID_38_" class="st0" d="M16.4,50.5c0.3,0,0.5,0.1,0.8,0.2c3.1-3.6,6-5.6,8.1-6.7c-1.6-1.8-3.2-3-4.3-3
					c-1.9,0-4.7,3.1-7.4,6.8c0.5,0.8,1.1,1.8,1.9,3C15.8,50.5,16.1,50.5,16.4,50.5z"/>
				<path id="XMLID_37_" class="st0" d="M10.1,58c0.3-0.8,1-1.4,2-1.4c0.2,0,0.5,0,0.7,0.1c0.8-1.2,1.5-2.4,2.3-3.4c0,0,0,0,0,0
					c-2.9,1.2-5.4,2.4-7.2,3.4c-0.1,0.1-0.1,0.2-0.2,0.4C8.2,57.2,9.1,57.6,10.1,58z"/>
				<path id="XMLID_26_" class="st0" d="M25.5,62.2c-0.1,0.1-0.1,0.3-0.2,0.4c2.6,2.4,5.4,4.5,8.3,5.7c0.9-1.8,1.6-4.5,2.1-6.3
					C32.4,62.6,28.9,62.6,25.5,62.2z"/>
				<path id="XMLID_25_" class="st0" d="M17.7,51.1c0.1,0.2,0.2,0.3,0.3,0.5c3.6-1.2,7.5-2.2,11.4-2.3c-1.3-1.9-2.6-3.6-3.9-5.1
					C23.4,45.4,20.7,47.5,17.7,51.1z"/>
				<path id="XMLID_24_" class="st0" d="M25.7,61.2c0,0.2,0,0.4-0.1,0.6c3.3,0.3,6.8,0.3,10.1-0.3c0.2-0.8,0.3-1.4,0.3-1.4
					s-2.1-3.8-4.8-8c-0.9,1.5-2.8,4.4-6,7.6C25.6,60.1,25.7,60.6,25.7,61.2z"/>
				<path id="XMLID_23_" class="st0" d="M18.1,52.2c0,0.5-0.3,1-0.6,1.3c1.3,1.7,2.7,3.6,4.4,5.5c0.4-0.3,0.9-0.4,1.4-0.4
					c0.6,0,1.1,0.2,1.5,0.5c3.2-3,5.5-5.8,6.5-7.2c-0.5-0.7-1-1.5-1.5-2.2C25.8,49.9,21.7,50.8,18.1,52.2
					C18.1,52.1,18.1,52.1,18.1,52.2z"/>
				<path id="XMLID_22_" class="st0" d="M20.7,61.5c-2.5-0.5-4.8-1.1-6.9-1.7c-0.4,0.5-1,0.9-1.7,0.9c-0.2,0-0.5,0-0.7-0.1
					c-1,2-2,4.1-2.9,6.5c0.2,0.6,0.5,1.2,0.6,1.7c4.4-1.3,8.4-3.8,11.8-6.4C20.8,62.1,20.7,61.8,20.7,61.5z"/>
				<path id="XMLID_21_" class="st0" d="M23.2,63.7c-0.7,0-1.3-0.3-1.7-0.7c-3.1,2.5-7.1,4.8-12,6.6c0.4,1,0.6,1.6,0.6,1.6
					c1.6-0.9,2-1,3.5-1.1c0.4,1.2,0.8,1.6,1.6,1.8c1.1-0.8,5.6-6.8,13.9-4.3c-3.6,2.2-2.3,3.7-1.8,4.5c1.5-1.5,4.2-2.5,5.6-2.6
					c0.1-0.1,0.2-0.3,0.3-0.4c-3-1.3-5.9-3.4-8.4-5.9C24.3,63.5,23.8,63.7,23.2,63.7z"/>
				<path id="XMLID_20_" class="st0" d="M16.4,53.9c-0.3,0-0.5-0.1-0.8-0.2c-0.7,1-1.5,2.1-2.2,3.3c0.5,0.4,0.7,1,0.7,1.6
					c0,0.2,0,0.5-0.1,0.7c2,0.6,4.2,1.2,6.6,1.7c0-0.6,0.3-1.1,0.6-1.5c-1.6-1.9-3.1-3.9-4.3-5.7C16.8,53.8,16.6,53.9,16.4,53.9z"/>
				<path id="XMLID_15_" class="st0" d="M10,58.6C10,58.6,10.1,58.5,10,58.6c-1.2-0.5-2.1-0.9-2.7-1.1C6.4,59,5.9,60,5.9,60
					s1.1,3,2.2,5.9c0.9-2.1,1.8-4.1,2.7-5.8C10.3,59.8,10,59.2,10,58.6z"/>
				<path id="XMLID_14_" class="st0" d="M12.8,46.3c0,0.2,0.2,0.7,0.7,1.6c0-0.1,0.1-0.1,0.1-0.2C13.1,46.9,12.8,46.3,12.8,46.3z"/>
				<path id="XMLID_13_" class="st0" d="M28.7,42.6c-0.1,0-1.4,0.3-3.4,1.3c0.1,0.1,0.1,0.1,0.2,0.2C27.4,43,28.7,42.6,28.7,42.6z"
					/>
				<path id="XMLID_12_" class="st0" d="M7.1,68.7l0.7,0.3c0.2-0.6,0.5-1.2,0.7-1.8c-0.1-0.4-0.3-0.7-0.4-1.1
					C7.8,66.9,7.4,67.7,7.1,68.7z"/>
				<path id="XMLID_11_" class="st0" d="M32.5,49.8l0-0.5c-1-0.1-2.1-0.1-3.1,0c0.1,0.2,0.2,0.3,0.4,0.5
					C30.7,49.7,31.6,49.7,32.5,49.8z"/>
				<path id="XMLID_10_" class="st0" d="M8.9,68.9l0.3,0.7c0.1,0,0.2-0.1,0.3-0.1c-0.1-0.2-0.2-0.5-0.3-0.7
					C9.1,68.9,9,68.9,8.9,68.9z"/>
				<path id="XMLID_9_" class="st0" d="M37.1,61.7L37,61.2c-0.4,0.1-0.8,0.2-1.2,0.2c0,0.2-0.1,0.4-0.1,0.6
					C36.2,61.9,36.6,61.8,37.1,61.7z"/>
				<path id="XMLID_8_" class="st0" d="M33.2,69c0.2,0.1,0.5,0.2,0.7,0.3l0.4-0.7c-0.2-0.1-0.4-0.2-0.7-0.3
					C33.5,68.6,33.3,68.8,33.2,69z"/>
				<path id="XMLID_7_" class="st0" d="M31.8,51.2c0,0-0.2,0.3-0.6,0.8c0,0,0,0.1,0.1,0.1C31.5,51.6,31.7,51.3,31.8,51.2z"/>
				<path id="XMLID_6_" class="st0" d="M7.4,56.9c0.1-0.1,0.3-0.2,0.5-0.2C8,56.3,8.2,56,8.4,55.7c-0.6,0.3-1.1,0.6-1.6,0.9
					c0,0,0,0,0,0l0,0c-1.3,0.8-2.1,1.3-2.2,1.3l0.3,0.4c0,0,0.7-0.5,1.9-1.1c0.1,0.1,0.3,0.1,0.6,0.2c0.1-0.1,0.2-0.3,0.3-0.5
					C7.5,56.9,7.5,56.9,7.4,56.9z"/>
			</g>
		</g>
		<g id="XMLID_51_" class="st2">
			<path id="XMLID_4_" class="st0" d="M37.1,76.6c-3.3,0.8-6.7,1-10.1,0.6c-1.7-0.2-3.4-0.7-4.9-1.5c-1.3-0.8-3.4-0.7-4.8-0.3
				c-2,0.6-2.5,1.5-4.9,1.6c-1.9,0.1-3.7-0.3-5.4-0.8c4.1-0.3,5.9-1.5,9.2-4.2c3.7-3.1,6-4.7,11.3-4c-2.4,1.4-2.4,3.7-0.4,5.4
				C29.5,75.7,33.3,76.6,37.1,76.6z"/>
			<path id="XMLID_27_" class="st0" d="M39.6,74.6c-0.7,0.2-1.3,0.3-2,0.4c-1.2,0.1-2.4,0.1-3.6-0.1c-1.2-0.1-2.2-0.7-3.2-1.2
				c-0.3,0.3-0.6,0.5-0.8,0.8c-1.1-0.4-1.9-1.2-2.3-1.7c1.2-1.3,3-2,5-2.4C33.1,73.7,36.3,74.9,39.6,74.6z"/>
			<path id="XMLID_40_" class="st0" d="M14.6,72.4c-0.3,0.3-0.8,0.7-1.2,0.9c-0.4-0.1-0.9-0.3-1.2-0.7c-0.2,0.1-0.5,0.1-0.7,0.2
				c-0.7,0.2-1.3,0.6-1.9,1c-1,0.5-1.9,1.3-3,1.6c-2,0.6-4,0.4-5.9,0.2c3.1-0.2,5-0.4,7.4-2.2c1.5-1.1,2.9-2.4,5-2.7
				C13.2,71.4,14,72.2,14.6,72.4z"/>
		</g>
	</g>
</g>
</svg>
